<?xml version="1.0" standalone="no"?>
<!DOCTYPE svg PUBLIC "-//W3C//DTD SVG 20010904//EN"
 "http://www.w3.org/TR/2001/REC-SVG-20010904/DTD/svg10.dtd">
<svg version="1.0" xmlns="http://www.w3.org/2000/svg"
 width="1280.000000pt" height="1280.000000pt" viewBox="0 0 1280.000000 1280.000000"
 preserveAspectRatio="xMidYMid meet">
<metadata>
Created by potrace 1.14, written by Peter Selinger 2001-2017
</metadata>
<g transform="translate(0.000000,1280.000000) scale(0.100000,-0.100000)"
fill="#000000" stroke="none">
<path d="M2069 12785 c-75 -15 -208 -66 -249 -95 -16 -11 -31 -20 -35 -20 -13
0 -100 -74 -153 -129 -49 -52 -122 -156 -122 -174 1 -4 -5 -14 -13 -21 -17
-18 -66 -164 -75 -226 -9 -59 -9 -11381 0 -11441 22 -151 123 -343 237 -447
76 -71 89 -82 95 -82 3 0 22 -12 43 -26 51 -35 129 -70 216 -97 l72 -22 4285
-2 c2781 -1 4306 2 4345 8 215 35 414 162 541 344 53 75 107 197 119 267 4 18
10 51 15 73 12 49 8 9386 -3 9430 -29 114 -73 216 -130 300 -48 72 -2130 2160
-2215 2221 -82 60 -208 116 -312 140 -19 5 -1511 9 -3315 10 -2683 2 -3292 0
-3346 -11z"/>
</g>
</svg>
